<svg xmlns="http://www.w3.org/2000/svg" width="266.22" height="35" viewBox="0 0 266.22 35"><rect class="svg__rect" x="0" y="0" width="65.13" height="35" fill="#FAD5EB"/><rect class="svg__rect" x="63.13" y="0" width="203.09" height="35" fill="#8F0B63"/><path class="svg__text" d="M16.51 22L13.46 13.47L15.08 13.47L17.22 20.14L19.39 13.47L21.02 13.47L17.95 22L16.51 22ZM26.53 22L25.06 22L25.06 13.47L26.53 13.47L26.53 22ZM36.92 22L31.34 22L31.34 13.47L36.88 13.47L36.88 14.66L32.83 14.66L32.83 17.02L36.33 17.02L36.33 18.19L32.83 18.19L32.83 20.82L36.92 20.82L36.92 22ZM42.50 22L40.53 13.47L42.00 13.47L43.33 19.88L44.96 13.47L46.20 13.47L47.81 19.89L49.12 13.47L50.59 13.47L48.62 22L47.21 22L45.58 15.77L43.92 22L42.50 22Z" fill="#000000"/><path class="svg__text" d="M81.29 22L77.32 22L77.32 13.60L81.29 13.60Q82.67 13.60 83.74 14.12Q84.81 14.63 85.40 15.58Q85.98 16.53 85.98 17.80L85.98 17.80Q85.98 19.07 85.40 20.02Q84.81 20.97 83.74 21.48Q82.67 22 81.29 22L81.29 22ZM79.70 15.50L79.70 20.10L81.20 20.10Q82.27 20.10 82.93 19.49Q83.58 18.88 83.58 17.80L83.58 17.80Q83.58 16.72 82.93 16.11Q82.27 15.50 81.20 15.50L81.20 15.50L79.70 15.50ZM92.13 22L89.70 22L93.41 13.60L95.76 13.60L99.47 22L97.01 22L96.34 20.37L92.79 20.37L92.13 22ZM94.57 15.93L93.48 18.61L95.65 18.61L94.57 15.93ZM105.42 15.48L102.84 15.48L102.84 13.60L110.36 13.60L110.36 15.48L107.79 15.48L107.79 22L105.42 22L105.42 15.48ZM116.15 22L113.72 22L117.43 13.60L119.77 13.60L123.49 22L121.02 22L120.36 20.37L116.81 20.37L116.15 22ZM118.59 15.93L117.50 18.61L119.66 18.61L118.59 15.93ZM133.54 20.93L133.54 20.93L134.83 19.40Q135.50 20.27 136.27 20.27L136.27 20.27Q136.28 20.27 136.29 20.27L136.29 20.27Q136.80 20.27 137.07 19.96Q137.34 19.65 137.34 19.05L137.34 19.05L137.34 15.44L134.44 15.44L134.44 13.60L139.70 13.60L139.70 18.91Q139.70 20.54 138.87 21.36Q138.05 22.17 136.46 22.17L136.46 22.17Q135.53 22.17 134.77 21.85Q134.02 21.53 133.54 20.93ZM144.35 17.80L144.35 17.80Q144.35 16.55 144.96 15.55Q145.56 14.56 146.63 14.00Q147.69 13.43 149.02 13.43L149.02 13.43Q150.35 13.43 151.41 14.00Q152.48 14.56 153.08 15.55Q153.69 16.55 153.69 17.80L153.69 17.80Q153.69 19.05 153.08 20.04Q152.48 21.04 151.42 21.60Q150.35 22.17 149.02 22.17L149.02 22.17Q147.69 22.17 146.63 21.60Q145.56 21.04 144.96 20.04Q144.35 19.05 144.35 17.80ZM146.75 17.80L146.75 17.80Q146.75 18.51 147.05 19.05Q147.35 19.60 147.87 19.90Q148.39 20.20 149.02 20.20L149.02 20.20Q149.66 20.20 150.17 19.90Q150.69 19.60 150.99 19.05Q151.29 18.51 151.29 17.80L151.29 17.80Q151.29 17.09 150.99 16.54Q150.69 16 150.17 15.70Q149.66 15.40 149.02 15.40L149.02 15.40Q148.38 15.40 147.87 15.70Q147.35 16 147.05 16.54Q146.75 17.09 146.75 17.80ZM160.80 22L158.42 22L158.42 13.60L160.80 13.60L160.80 22ZM168.30 22L165.97 22L165.97 13.60L167.93 13.60L171.64 18.07L171.64 13.60L173.96 13.60L173.96 22L172.01 22L168.30 17.52L168.30 22ZM188.48 22L186.10 22L186.10 13.60L192.69 13.60L192.69 15.44L188.48 15.44L188.48 17.28L192.19 17.28L192.19 19.12L188.48 19.12L188.48 22ZM196.85 17.80L196.85 17.80Q196.85 16.55 197.46 15.55Q198.06 14.56 199.13 14.00Q200.19 13.43 201.52 13.43L201.52 13.43Q202.85 13.43 203.91 14.00Q204.98 14.56 205.58 15.55Q206.19 16.55 206.19 17.80L206.19 17.80Q206.19 19.05 205.58 20.04Q204.98 21.04 203.92 21.60Q202.85 22.17 201.52 22.17L201.52 22.17Q200.19 22.17 199.13 21.60Q198.06 21.04 197.46 20.04Q196.85 19.05 196.85 17.80ZM199.25 17.80L199.25 17.80Q199.25 18.51 199.55 19.05Q199.85 19.60 200.37 19.90Q200.89 20.20 201.52 20.20L201.52 20.20Q202.16 20.20 202.67 19.90Q203.19 19.60 203.49 19.05Q203.79 18.51 203.79 17.80L203.79 17.80Q203.79 17.09 203.49 16.54Q203.19 16 202.67 15.70Q202.16 15.40 201.52 15.40L201.52 15.40Q200.88 15.40 200.37 15.70Q199.85 16 199.55 16.54Q199.25 17.09 199.25 17.80ZM217.30 22L210.92 22L210.92 13.60L213.30 13.60L213.30 20.11L217.30 20.11L217.30 22ZM225.69 22L221.72 22L221.72 13.60L225.69 13.60Q227.08 13.60 228.14 14.12Q229.21 14.63 229.80 15.58Q230.39 16.53 230.39 17.80L230.39 17.80Q230.39 19.07 229.80 20.02Q229.21 20.97 228.14 21.48Q227.08 22 225.69 22L225.69 22ZM224.10 15.50L224.10 20.10L225.60 20.10Q226.68 20.10 227.33 19.49Q227.99 18.88 227.99 17.80L227.99 17.80Q227.99 16.72 227.33 16.11Q226.68 15.50 225.60 15.50L225.60 15.50L224.10 15.50ZM241.86 22L235.12 22L235.12 13.60L241.71 13.60L241.71 15.44L237.47 15.44L237.47 16.85L241.20 16.85L241.20 18.63L237.47 18.63L237.47 20.17L241.86 20.17L241.86 22ZM249.04 22L246.67 22L246.67 13.60L250.51 13.60Q251.65 13.60 252.49 13.98Q253.33 14.35 253.78 15.06Q254.24 15.76 254.24 16.71L254.24 16.71Q254.24 17.62 253.81 18.30Q253.39 18.98 252.60 19.36L252.60 19.36L254.41 22L251.86 22L250.34 19.77L249.04 19.77L249.04 22ZM249.04 15.47L249.04 17.93L250.36 17.93Q251.10 17.93 251.47 17.61Q251.84 17.29 251.84 16.71L251.84 16.71Q251.84 16.12 251.47 15.79Q251.10 15.47 250.36 15.47L250.36 15.47L249.04 15.47Z" fill="#FFFFFF" x="76.13"/></svg>