<svg xmlns="http://www.w3.org/2000/svg" width="353.08" height="35" viewBox="0 0 353.08 35"><rect class="svg__rect" x="0" y="0" width="65.13" height="35" fill="#FAD5EB"/><rect class="svg__rect" x="63.13" y="0" width="289.95" height="35" fill="#8F0B63"/><path class="svg__text" d="M16.51 22L13.46 13.47L15.08 13.47L17.22 20.14L19.39 13.47L21.02 13.47L17.95 22L16.51 22ZM26.53 22L25.06 22L25.06 13.47L26.53 13.47L26.53 22ZM36.92 22L31.34 22L31.34 13.47L36.88 13.47L36.88 14.66L32.83 14.66L32.83 17.02L36.33 17.02L36.33 18.19L32.83 18.19L32.83 20.82L36.92 20.82L36.92 22ZM42.50 22L40.53 13.47L42.00 13.47L43.33 19.88L44.96 13.47L46.20 13.47L47.81 19.89L49.12 13.47L50.59 13.47L48.62 22L47.21 22L45.58 15.77L43.92 22L42.50 22Z" fill="#000000"/><path class="svg__text" d="M81.29 22L77.32 22L77.32 13.60L81.29 13.60Q82.67 13.60 83.74 14.12Q84.81 14.63 85.40 15.58Q85.98 16.53 85.98 17.80L85.98 17.80Q85.98 19.07 85.40 20.02Q84.81 20.97 83.74 21.48Q82.67 22 81.29 22L81.29 22ZM79.70 15.50L79.70 20.10L81.20 20.10Q82.27 20.10 82.93 19.49Q83.58 18.88 83.58 17.80L83.58 17.80Q83.58 16.72 82.93 16.11Q82.27 15.50 81.20 15.50L81.20 15.50L79.70 15.50ZM92.13 22L89.70 22L93.41 13.60L95.76 13.60L99.47 22L97.01 22L96.34 20.37L92.79 20.37L92.13 22ZM94.57 15.93L93.48 18.61L95.65 18.61L94.57 15.93ZM105.42 15.48L102.84 15.48L102.84 13.60L110.36 13.60L110.36 15.48L107.79 15.48L107.79 22L105.42 22L105.42 15.48ZM116.15 22L113.72 22L117.43 13.60L119.77 13.60L123.49 22L121.02 22L120.36 20.37L116.81 20.37L116.15 22ZM118.59 15.93L117.50 18.61L119.66 18.61L118.59 15.93ZM141.36 22L134.62 22L134.62 13.60L141.21 13.60L141.21 15.44L136.97 15.44L136.97 16.85L140.70 16.85L140.70 18.63L136.97 18.63L136.97 20.17L141.36 20.17L141.36 22ZM148.02 22L145.30 22L148.36 17.75L145.43 13.60L148.11 13.60L149.79 16.02L151.44 13.60L154.02 13.60L151.09 17.66L154.21 22L151.47 22L149.73 19.40L148.02 22ZM160.87 22L158.49 22L158.49 13.60L162.34 13.60Q163.47 13.60 164.31 13.98Q165.16 14.35 165.61 15.06Q166.07 15.76 166.07 16.71L166.07 16.71Q166.07 17.66 165.61 18.35Q165.16 19.05 164.31 19.42Q163.47 19.80 162.34 19.80L162.34 19.80L160.87 19.80L160.87 22ZM160.87 15.47L160.87 17.93L162.19 17.93Q162.92 17.93 163.30 17.61Q163.67 17.29 163.67 16.71L163.67 16.71Q163.67 16.12 163.30 15.80Q162.92 15.47 162.19 15.47L162.19 15.47L160.87 15.47ZM177.21 22L170.82 22L170.82 13.60L173.20 13.60L173.20 20.11L177.21 20.11L177.21 22ZM181.20 17.80L181.20 17.80Q181.20 16.55 181.80 15.55Q182.41 14.56 183.47 14.00Q184.53 13.43 185.86 13.43L185.86 13.43Q187.19 13.43 188.26 14.00Q189.32 14.56 189.93 15.55Q190.53 16.55 190.53 17.80L190.53 17.80Q190.53 19.05 189.93 20.04Q189.32 21.04 188.26 21.60Q187.20 22.17 185.86 22.17L185.86 22.17Q184.53 22.17 183.47 21.60Q182.41 21.04 181.80 20.04Q181.20 19.05 181.20 17.80ZM183.60 17.80L183.60 17.80Q183.60 18.51 183.90 19.05Q184.20 19.60 184.71 19.90Q185.23 20.20 185.86 20.20L185.86 20.20Q186.50 20.20 187.02 19.90Q187.53 19.60 187.83 19.05Q188.13 18.51 188.13 17.80L188.13 17.80Q188.13 17.09 187.83 16.54Q187.53 16 187.02 15.70Q186.50 15.40 185.86 15.40L185.86 15.40Q185.22 15.40 184.71 15.70Q184.20 16 183.90 16.54Q183.60 17.09 183.60 17.80ZM197.64 22L195.26 22L195.26 13.60L199.10 13.60Q200.25 13.60 201.09 13.98Q201.92 14.35 202.38 15.06Q202.84 15.76 202.84 16.71L202.84 16.71Q202.84 17.62 202.41 18.30Q201.98 18.98 201.19 19.36L201.19 19.36L203.00 22L200.46 22L198.94 19.77L197.64 19.77L197.64 22ZM197.64 15.47L197.64 17.93L198.96 17.93Q199.69 17.93 200.06 17.61Q200.44 17.29 200.44 16.71L200.44 16.71Q200.44 16.12 200.06 15.79Q199.69 15.47 198.96 15.47L198.96 15.47L197.64 15.47ZM209.04 22L206.62 22L210.33 13.60L212.67 13.60L216.38 22L213.92 22L213.26 20.37L209.70 20.37L209.04 22ZM211.48 15.93L210.40 18.61L212.56 18.61L211.48 15.93ZM222.33 15.48L219.75 15.48L219.75 13.60L227.27 13.60L227.27 15.48L224.70 15.48L224.70 22L222.33 22L222.33 15.48ZM234.02 22L231.64 22L231.64 13.60L234.02 13.60L234.02 22ZM238.77 17.80L238.77 17.80Q238.77 16.55 239.37 15.55Q239.97 14.56 241.04 14.00Q242.10 13.43 243.43 13.43L243.43 13.43Q244.76 13.43 245.82 14.00Q246.89 14.56 247.49 15.55Q248.10 16.55 248.10 17.80L248.10 17.80Q248.10 19.05 247.49 20.04Q246.89 21.04 245.83 21.60Q244.77 22.17 243.43 22.17L243.43 22.17Q242.10 22.17 241.04 21.60Q239.97 21.04 239.37 20.04Q238.77 19.05 238.77 17.80ZM241.16 17.80L241.16 17.80Q241.16 18.51 241.47 19.05Q241.77 19.60 242.28 19.90Q242.80 20.20 243.43 20.20L243.43 20.20Q244.07 20.20 244.59 19.90Q245.10 19.60 245.40 19.05Q245.70 18.51 245.70 17.80L245.70 17.80Q245.70 17.09 245.40 16.54Q245.10 16 244.59 15.70Q244.07 15.40 243.43 15.40L243.43 15.40Q242.79 15.40 242.28 15.70Q241.77 16 241.47 16.54Q241.16 17.09 241.16 17.80ZM255.16 22L252.83 22L252.83 13.60L254.79 13.60L258.50 18.07L258.50 13.60L260.82 13.60L260.82 22L258.87 22L255.16 17.52L255.16 22ZM275.34 22L272.96 22L272.96 13.60L279.55 13.60L279.55 15.44L275.34 15.44L275.34 17.28L279.04 17.28L279.04 19.12L275.34 19.12L275.34 22ZM283.71 17.80L283.71 17.80Q283.71 16.55 284.32 15.55Q284.92 14.56 285.98 14.00Q287.05 13.43 288.38 13.43L288.38 13.43Q289.71 13.43 290.77 14.00Q291.84 14.56 292.44 15.55Q293.05 16.55 293.05 17.80L293.05 17.80Q293.05 19.05 292.44 20.04Q291.84 21.04 290.77 21.60Q289.71 22.17 288.38 22.17L288.38 22.17Q287.05 22.17 285.98 21.60Q284.92 21.04 284.32 20.04Q283.71 19.05 283.71 17.80ZM286.11 17.80L286.11 17.80Q286.11 18.51 286.41 19.05Q286.71 19.60 287.23 19.90Q287.75 20.20 288.38 20.20L288.38 20.20Q289.02 20.20 289.53 19.90Q290.05 19.60 290.35 19.05Q290.65 18.51 290.65 17.80L290.65 17.80Q290.65 17.09 290.35 16.54Q290.05 16 289.53 15.70Q289.02 15.40 288.38 15.40L288.38 15.40Q287.74 15.40 287.23 15.70Q286.71 16 286.41 16.54Q286.11 17.09 286.11 17.80ZM304.16 22L297.78 22L297.78 13.60L300.16 13.60L300.16 20.11L304.16 20.11L304.16 22ZM312.55 22L308.58 22L308.58 13.60L312.55 13.60Q313.94 13.60 315.00 14.12Q316.07 14.63 316.66 15.58Q317.25 16.53 317.25 17.80L317.25 17.80Q317.25 19.07 316.66 20.02Q316.07 20.97 315.00 21.48Q313.94 22 312.55 22L312.55 22ZM310.96 15.50L310.96 20.10L312.46 20.10Q313.54 20.10 314.19 19.49Q314.85 18.88 314.85 17.80L314.85 17.80Q314.85 16.72 314.19 16.11Q313.54 15.50 312.46 15.50L312.46 15.50L310.96 15.50ZM328.72 22L321.98 22L321.98 13.60L328.57 13.60L328.57 15.44L324.33 15.44L324.33 16.85L328.06 16.85L328.06 18.63L324.33 18.63L324.33 20.17L328.72 20.17L328.72 22ZM335.90 22L333.52 22L333.52 13.60L337.37 13.60Q338.51 13.60 339.35 13.98Q340.19 14.35 340.64 15.06Q341.10 15.76 341.10 16.71L341.10 16.71Q341.10 17.62 340.67 18.30Q340.25 18.98 339.45 19.36L339.45 19.36L341.27 22L338.72 22L337.20 19.77L335.90 19.77L335.90 22ZM335.90 15.47L335.90 17.93L337.22 17.93Q337.95 17.93 338.33 17.61Q338.70 17.29 338.70 16.71L338.70 16.71Q338.70 16.12 338.33 15.79Q337.95 15.47 337.22 15.47L337.22 15.47L335.90 15.47Z" fill="#FFFFFF" x="76.13"/></svg>